<svg width="883" height="828" viewBox="0 0 883 828" fill="none" xmlns="http://www.w3.org/2000/svg">
<path d="M882.163 62.6602C889.132 28.6368 850.904 5.65896 829.034 2.03621C807.886 -1.47253 786.422 0.946857 765.122 7.79967C765.122 7.79967 764.602 7.95167 763.601 8.29368C753.351 11.7011 743.138 16.1218 733.014 21.4166C674.474 50.0439 546.7 129.884 441.494 316.974C336.287 129.896 208.513 50.0566 149.973 21.4293C139.849 16.1345 129.637 11.7011 119.386 8.30635C118.385 7.96434 117.865 7.79967 117.865 7.79967C96.5782 0.946857 75.1263 -1.47253 53.9658 2.03621C32.0958 5.67162 -6.1324 28.6494 0.836615 62.6602C2.55986 71.0457 10.0357 75.2384 11.797 81.9519C13.1021 86.93 12.0757 90.3881 12.6333 94.8342C14.1284 106.83 31.7283 112.188 31.9944 126.578C32.0451 129.39 30.9047 131.809 30.8667 134.203C30.702 145.92 49.2649 152.228 50.2913 168.302C51.0895 180.703 45.2229 183.401 54.8401 194.257C58.1346 197.981 65.1669 202.11 66.8268 207.203C69.5891 215.651 64.7995 225.24 67.0169 233.537C67.8025 236.463 72.0979 239.326 74.1253 242.429C84.3381 258.162 73.5171 265.889 76.178 276.529C78.1546 284.42 94.0186 286.599 96.0587 302.496C97.7186 315.505 90.4328 319.672 101.9 330.68C106.867 335.443 115.534 338.711 118.562 345.412C122.718 354.57 118.866 368.44 124.632 377.104C129.257 384.058 139.913 385.3 144.563 391.57C151.494 400.918 143.233 411.368 155.194 418.854C166.851 426.151 192.446 429.609 205.624 429.697C217.37 429.773 232.601 424.542 243.548 431.863C245.17 432.953 249.225 436.436 250.099 439.489C210.3 458.793 -21.5529 453.651 6.00635 658.095C38.9001 902.06 238.303 859.613 271.057 675.271C303.824 490.929 424.996 522.635 441.481 511.855L441.126 511.703C441.266 511.703 441.392 511.741 441.481 511.855L441.38 511.564L441.481 511.703L441.582 511.564L441.481 511.855C441.57 511.741 441.696 511.703 441.836 511.703L441.481 511.855C457.966 522.622 579.138 490.917 611.905 675.271C644.672 859.613 844.074 902.06 876.956 658.095C904.515 453.638 672.662 458.781 632.863 439.489C633.75 436.436 637.792 432.953 639.414 431.863C650.361 424.542 665.592 429.773 677.338 429.697C690.503 429.609 716.098 426.151 727.768 418.854C739.729 411.368 731.481 400.918 738.399 391.57C743.049 385.287 753.705 384.058 758.33 377.104C764.096 368.44 760.244 354.57 764.4 345.412C767.441 338.711 776.108 335.443 781.062 330.68C792.529 319.672 785.243 315.505 786.903 302.496C788.943 286.599 804.807 284.42 806.784 276.529C809.445 265.889 798.624 258.149 808.837 242.429C810.851 239.326 815.159 236.463 815.945 233.537C818.162 225.24 813.385 215.651 816.135 207.203C817.795 202.098 824.827 197.981 828.122 194.257C837.739 183.401 831.872 180.691 832.671 168.302C833.71 152.228 852.26 145.92 852.095 134.203C852.057 131.796 850.917 129.39 850.968 126.578C851.234 112.188 868.821 106.83 870.329 94.8342C870.886 90.3881 869.86 86.93 871.165 81.9519C872.926 75.2384 880.415 71.0584 882.125 62.6602H882.163Z" fill="white"/>
</svg>
