<svg width="743" height="596" viewBox="0 0 743 596" fill="none" xmlns="http://www.w3.org/2000/svg">
<path d="M338.627 62.4588C352.356 62.4588 363.486 48.4798 363.486 31.2359C363.486 13.992 352.356 0.0130577 338.627 0.0130577C324.897 0.0130577 313.768 13.992 313.768 31.2359C313.768 48.4798 324.897 62.4588 338.627 62.4588Z" fill="white"/>
<path d="M403.064 62.4588C416.793 62.4588 427.923 48.4798 427.923 31.2359C427.923 13.992 416.793 0.0130577 403.064 0.0130577C389.335 0.0130577 378.205 13.992 378.205 31.2359C378.205 48.4798 389.335 62.4588 403.064 62.4588Z" fill="white"/>
<path d="M564.559 171.222C575.895 156.107 588.424 130.254 590.214 125.481C625.215 47.1256 578.679 -17.1099 494.557 20.8746C436.287 48.3189 389.751 100.821 372.052 162.869C371.654 164.062 371.455 165.454 371.256 166.648C370.858 164.261 370.262 162.073 369.665 159.687C351.966 97.8379 305.43 45.1369 247.16 17.6926C163.037 -20.2919 116.501 43.9437 151.503 122.299C153.492 127.072 166.021 152.925 177.157 168.04C37.9471 173.011 -78.194 354.382 66.7835 444.67C112.922 468.933 161.645 469.927 205.994 455.409C201.149 456.042 197.555 457.582 197.555 457.582C262.586 449.429 152.497 592.034 152.497 592.034C314.777 457.199 358.131 296.113 358.131 296.113C357.932 296.71 357.534 297.306 357.335 297.704C360.119 287.959 362.506 278.215 363.898 268.072C363.898 267.873 363.898 267.674 363.898 267.475C363.898 267.078 364.097 266.68 364.097 266.083C364.097 260.117 359.125 255.145 353.159 255.145C347.59 255.145 343.016 259.521 342.42 265.089C342.42 265.089 341.028 307.449 309.805 353.189C274.604 399.129 223.892 431.744 164.628 436.517C70.3632 447.256 -4.21368 362.735 45.5042 274.237C68.1756 231.281 110.535 200.655 157.469 186.336C184.118 179.773 196.05 191.507 196.05 191.507C209.573 203.439 223.892 216.962 239.006 227.105C254.518 236.849 271.82 249.577 291.509 246.793C306.026 245.401 314.379 228.099 306.623 215.769C292.105 193.296 267.445 183.154 241.99 176.79H242.387C215.937 170.227 118.888 104.202 185.709 68.4049C310.004 1.58401 343.613 141.987 345.801 151.931C349.579 170.824 350.772 192.302 345.801 215.968V216.365C345.602 217.559 345.403 218.553 345.204 219.746C345.204 225.712 350.176 230.684 356.142 230.684C360.318 230.684 363.699 228.298 365.688 224.917C365.688 224.917 365.887 224.917 365.887 224.718C365.887 224.718 365.887 224.32 366.085 224.121C368.074 220.343 369.466 216.365 370.659 212.587C371.853 217.559 373.643 222.531 376.228 227.303C376.228 227.303 376.228 227.701 376.427 227.9C376.427 227.9 376.626 227.9 376.626 228.099C378.416 231.48 381.995 233.866 386.172 233.866C392.138 233.866 397.109 228.894 397.109 222.928C396.911 221.735 396.712 220.741 396.513 219.547C396.513 219.547 396.513 219.349 396.513 219.15C391.541 195.285 392.734 173.807 396.513 155.113C398.7 145.368 432.509 4.76596 556.803 71.5869C623.624 107.583 526.575 173.409 500.125 179.972H500.523C475.067 186.137 450.208 196.478 435.889 218.951C428.133 231.281 436.486 248.583 451.004 249.975C470.692 252.759 487.994 240.031 503.506 230.286C518.421 220.144 532.939 206.82 546.462 194.688C546.462 194.688 558.394 183.154 585.043 189.717C631.977 204.035 674.337 234.463 697.008 277.618C746.726 365.917 672.149 450.636 577.884 439.897C518.62 435.124 467.908 402.509 432.707 356.57C401.485 310.631 400.093 268.47 400.093 268.47C399.496 262.901 394.922 258.526 389.353 258.526C383.387 258.526 378.416 263.498 378.416 269.464C378.416 269.862 378.614 270.26 378.614 270.856C378.614 271.055 378.614 271.254 378.614 271.453C380.006 281.397 382.393 291.34 385.177 301.085C384.978 300.488 384.581 300.09 384.382 299.494C384.382 299.494 427.537 460.58 590.015 595.415C590.015 595.415 479.31 453.022 544.341 461.176C544.341 461.176 544.341 458.216 536.519 458.79C580.867 473.308 629.59 472.313 675.729 448.051C820.706 357.763 704.565 176.392 565.355 171.42L564.559 171.222ZM288.128 214.178C288.128 222.133 282.758 231.082 255.712 224.519C246.961 221.934 236.819 217.161 225.682 207.615C217.727 200.058 210.369 191.904 203.21 183.751C202.215 182.358 201.42 181.364 200.624 180.569C222.301 181.563 245.569 183.552 266.053 191.705C285.741 199.859 287.73 210.598 287.929 214.178H288.128ZM344.21 145.965C344.607 147.954 345.005 149.942 345.403 151.931L344.21 145.965ZM397.706 149.147L396.513 155.113C396.911 153.124 397.308 151.136 397.706 149.147ZM538.507 186.932C531.547 195.086 523.99 203.24 516.035 210.797C504.898 220.144 494.755 224.917 486.005 227.502C458.959 234.065 453.788 225.315 453.589 217.161C453.589 213.78 455.777 203.041 475.465 194.688C496.148 186.734 519.217 184.745 540.894 183.552C540.382 184.064 538.808 186.58 538.507 186.932Z" fill="white"/>
</svg>
