<svg width="1023" height="843" viewBox="0 0 1023 843" fill="none" xmlns="http://www.w3.org/2000/svg">
<path d="M926.583 0.809727L926.563 0.879727C898.883 1.69973 862.233 10.0697 813.873 29.6697C666.873 89.2297 587.413 189.74 547.323 260.75C539.983 273.76 526.243 281.82 511.303 281.82C496.373 281.82 482.623 273.75 475.283 260.75C435.193 189.74 355.723 89.2297 208.733 29.6697C160.353 10.0697 123.703 1.69973 96.0232 0.889727L96.0032 0.819727C96.0032 0.819727 -15.1268 -11.1803 1.74322 100.95C9.45322 152.23 40.8332 183.57 72.6132 202.5C67.3732 205.89 37.8132 228.18 89.2232 271.83C89.2232 271.83 63.8432 318.36 113.543 356.43C152.643 386.38 263.063 377.72 308.403 372.66C313.643 372.09 387.553 364.38 366.113 388.88C358.783 397.25 347.633 401.21 336.603 399.81C301.813 395.37 206.863 392.43 158.413 481.36C98.4032 591.52 165.923 662.14 165.923 662.14C108.953 863.41 222.583 841.57 222.583 841.57C436.653 806.01 493.063 506.2 506.993 389.13C507.253 386.96 509.093 385.33 511.283 385.33C513.473 385.33 515.313 386.96 515.573 389.13C529.503 506.19 585.913 806.01 799.983 841.57C799.983 841.57 913.613 863.41 856.643 662.14C856.643 662.14 924.163 591.52 864.153 481.36C815.703 392.43 720.753 395.37 685.963 399.81C674.933 401.22 663.773 397.25 656.453 388.88C635.013 364.38 708.933 372.08 714.163 372.66C759.503 377.72 869.923 386.38 909.023 356.43C958.723 318.36 933.343 271.83 933.343 271.83C984.753 228.18 955.193 205.89 949.953 202.5C981.733 183.57 1013.1 152.22 1020.82 100.95C1037.71 -11.1803 926.583 0.809727 926.583 0.809727Z" fill="white"/>
</svg>
