<svg width="1152" height="901" viewBox="0 0 1152 901" fill="none" xmlns="http://www.w3.org/2000/svg">
<path d="M1124.75 29.5343C1109.4 15.6302 1081.9 7.20555 1064.91 5.23066C1064.91 5.23066 817.855 -58.274 602.759 277.023C590.25 296.532 561.785 296.532 549.276 277.023C334.179 -58.274 87.1251 5.23066 87.1251 5.23066C70.1305 7.20555 42.6357 15.6302 27.2847 29.5343C27.2847 29.5343 -70.2997 95.5047 103.629 301.487C182.084 394.398 267.274 409.729 337.147 398.564C327.81 403.656 315.324 407.297 305.349 412.56C274.464 428.884 248.008 454.957 228.206 481.544C225.547 485.117 221.13 489.409 221.609 493.77C222.237 499.512 231.31 504.775 232.783 511.247C237.017 529.9 221.198 541.864 212.455 556.418C200.243 576.75 220.08 573.987 234.734 581.35C247.278 587.651 250.005 597.857 246.753 609.9C244.984 616.43 232.737 634.889 234.963 639.261C238.318 645.836 254.662 643.279 261.419 644.147C287.304 647.469 290.306 670.757 287.544 689.729C279.52 744.866 260.083 801.43 251.124 856.727C249.378 867.503 244.801 889.387 252.882 898.12C259.855 905.654 265.87 892.834 268.107 887.88C272.615 877.949 276.211 865.62 279.532 852.207C279.532 852.207 310.177 741.236 385.22 733.782C396.975 733.336 408.594 737.161 419.266 747.446C422.77 751.921 426.787 753.999 432.209 745.015C441.054 730.346 442.675 705.049 460.08 694.683C475.796 685.323 485.429 702.309 494.446 683.222C503.725 663.576 507.879 640.403 514.168 619.9C526.392 580.072 537.919 528.998 554.309 491.578C554.355 491.475 554.4 491.361 554.457 491.259C562.686 472.606 589.314 472.606 597.543 491.259C597.588 491.361 597.634 491.475 597.691 491.578C614.081 528.987 625.608 580.072 637.832 619.9C644.121 640.414 648.287 663.588 657.554 683.222C666.559 702.298 676.204 685.323 691.92 694.683C709.325 705.049 710.946 730.346 719.792 745.015C725.213 754.01 729.23 751.921 732.734 747.446C743.406 737.161 755.025 733.336 766.78 733.782C841.835 741.236 872.468 852.207 872.468 852.207C875.79 865.62 879.396 877.949 883.893 887.88C886.141 892.823 892.145 905.654 899.119 898.12C907.199 889.387 902.622 867.492 900.876 856.727C891.905 801.43 872.48 744.878 864.456 689.729C861.694 670.768 864.696 647.48 890.581 644.147C897.338 643.279 913.693 645.836 917.037 639.261C919.263 634.9 907.017 616.43 905.247 609.9C901.995 597.857 904.722 587.651 917.266 581.35C931.921 573.987 951.757 576.75 939.545 556.418C930.802 541.864 914.983 529.912 919.217 511.247C920.69 504.775 929.763 499.512 930.391 493.77C930.87 489.409 926.454 485.117 923.794 481.544C903.992 454.946 877.536 428.884 846.651 412.56C836.687 407.297 824.19 403.656 814.854 398.564C884.738 409.729 969.916 394.398 1048.37 301.487C1222.3 95.5047 1124.72 29.5343 1124.72 29.5343H1124.75Z" fill="white"/>
</svg>
