<?xml version="1.0" encoding="UTF-8"?>
<svg id="Layer_2" data-name="Layer 2" xmlns="http://www.w3.org/2000/svg" viewBox="0 0 683.27 390.38">
  <defs>
    <style>
      .cls-1 {
        fill: #fff;
      }
    </style>
  </defs>
  <g id="Layer_1-2" data-name="Layer 1">
    <path class="cls-1" d="M548.26,389.45c-59.26-4.77-109.97-37.39-145.17-83.33-31.23-45.94-32.62-88.1-32.62-88.1-.14-1.33-.51-2.59-1.06-3.74,0,0,0-.02-.01-.03-3.23-11.25-14.63-19.57-28.2-19.57-11,0-20.57,5.47-25.51,13.53-1.58,1.72-2.62,3.95-2.89,6.43,0,0,0,.17-.02.49-.45,1.82-.69,3.7-.69,5.64,0,.33.01.66.03.98-1.81,13.93-8.39,46.5-31.94,80.99-35.2,45.94-85.91,78.56-145.17,83.33-94.27,10.74-168.84-73.78-119.13-162.28,22.68-42.96,65.03-73.58,111.97-87.9,26.65-6.56,38.58,5.17,38.58,5.17,13.52,11.93,27.84,25.45,42.96,35.6,15.51,9.74,32.81,22.47,52.5,19.69,14.52-1.4,22.87-18.7,15.11-31.03-14.52-22.47-39.18-32.61-64.63-38.98h.4c-26.45-6.56-123.5-72.59-56.68-108.38,124.29-66.82,157.9,73.58,160.09,83.52,3.78,18.9,4.97,40.37,0,64.04v.4c-.2,1.19-.4,2.19-.6,3.38,0,5.96,4.98,10.94,10.94,10.94,4.18,0,7.56-2.39,9.55-5.77,0,0,.2,0,.2-.2,0,0,0-.4.19-.6,1.99-3.77,3.39-7.75,4.58-11.53,1.19,4.97,2.98,9.94,5.57,14.72,0,0,0,.39.2.59,0,0,.2,0,.2.2,1.79,3.38,5.36,5.77,9.54,5.77,5.97,0,10.94-4.97,10.94-10.94-.2-1.19-.4-2.19-.6-3.38v-.4c-4.97-23.86-3.78-45.34,0-64.03,2.19-9.75,36-150.35,160.29-83.53,66.82,36-30.23,101.82-56.68,108.38h.4c-25.45,6.17-50.31,16.51-64.63,38.98-7.76,12.33.6,29.64,15.11,31.03,19.69,2.78,36.99-9.95,52.51-19.69,14.91-10.14,29.43-23.47,42.95-35.6,0,0,11.93-11.53,38.58-4.97,46.94,14.32,89.3,44.75,111.97,87.9,49.72,88.3-24.86,173.02-119.13,162.28Z"/>
  </g>
</svg>